<?xml version="1.0" standalone="no"?>
<!DOCTYPE svg PUBLIC "-//W3C//DTD SVG 20010904//EN"
 "http://www.w3.org/TR/2001/REC-SVG-20010904/DTD/svg10.dtd">
<svg version="1.0" xmlns="http://www.w3.org/2000/svg"
 width="3000.000000pt" height="3000.000000pt" viewBox="0 0 3000.000000 3000.000000"
 preserveAspectRatio="xMidYMid meet">
<metadata>
Created by potrace 1.14, written by Peter Selinger 2001-2017
</metadata>
<g transform="translate(0.000000,3000.000000) scale(0.100000,-0.100000)"
fill="#000000" stroke="none">
<path d="M365 29980 c-178 -53 -310 -191 -352 -370 -10 -45 -13 -2699 -12
-14615 0 -12641 2 -14567 15 -14615 8 -30 26 -80 41 -110 28 -56 138 -180 160
-180 6 0 13 -3 15 -7 6 -15 93 -53 153 -68 54 -13 528 -15 4175 -12 2263 1
4122 5 4130 8 8 3 26 9 40 13 178 56 320 222 345 403 8 58 8 2546 0 2588 -42
226 -211 390 -430 419 -22 3 -1118 5 -2436 6 l-2396 0 0 11545 0 11545 2416 0
c2323 0 2419 1 2483 19 169 46 302 180 350 349 18 64 19 123 19 1367 0 1271
-1 1302 -20 1368 -24 84 -60 146 -119 210 -48 51 -141 112 -194 128 -18 6 -42
13 -53 17 -11 4 -1876 8 -4145 8 -3924 2 -4128 1 -4185 -16z"/>
<path d="M21305 29986 c-71 -18 -132 -47 -190 -91 -58 -45 -77 -67 -126 -146
-74 -119 -70 -43 -70 -1479 0 -707 3 -1296 6 -1310 3 -14 8 -38 11 -55 21
-117 124 -246 254 -319 107 -60 -60 -56 2581 -56 l2417 0 0 -11545 0 -11545
-2397 -1 c-1318 0 -2414 -2 -2436 -4 -108 -12 -224 -73 -305 -162 -68 -74
-110 -162 -125 -258 -11 -74 -7 -2555 5 -2615 35 -178 183 -334 363 -381 68
-18 212 -19 4166 -19 3957 0 4098 1 4166 19 98 26 150 56 225 131 71 71 115
147 136 238 11 48 14 2468 14 14612 0 12992 -2 14561 -15 14615 -43 169 -157
295 -323 358 l-57 22 -4125 2 c-3249 1 -4136 -1 -4175 -11z"/>
<path d="M17438 25495 c-1 -1 -66 -6 -143 -9 -77 -4 -160 -9 -185 -11 -25 -3
-81 -7 -125 -10 -44 -3 -93 -8 -110 -10 -16 -2 -61 -7 -98 -10 -37 -4 -76 -8
-85 -10 -9 -1 -42 -6 -73 -9 -31 -4 -67 -9 -80 -11 -12 -3 -59 -10 -103 -16
-119 -17 -118 -17 -156 -24 -28 -5 -270 -53 -355 -71 -225 -47 -678 -189 -924
-291 -132 -54 -455 -208 -511 -243 -8 -5 -83 -49 -165 -99 -131 -78 -244 -152
-415 -274 -58 -41 -213 -159 -220 -167 -3 -3 -30 -25 -60 -50 -277 -224 -616
-567 -831 -840 -24 -30 -47 -59 -51 -65 -31 -38 -150 -203 -200 -279 -33 -50
-69 -103 -79 -118 -11 -15 -19 -30 -19 -33 0 -4 -10 -21 -23 -38 -67 -95 -235
-409 -327 -612 -35 -75 -143 -354 -154 -395 -4 -14 -11 -34 -16 -45 -44 -99
-186 -649 -229 -890 -6 -33 -13 -71 -16 -85 -10 -51 -54 -317 -60 -370 -4 -30
-9 -62 -10 -70 -2 -8 -6 -37 -9 -65 -4 -27 -9 -61 -11 -75 -2 -14 -6 -52 -10
-85 -13 -127 -16 -151 -20 -175 -3 -14 -7 -65 -11 -115 -3 -49 -8 -97 -9 -106
-2 -9 -6 -59 -10 -110 -3 -52 -8 -116 -11 -144 -2 -27 -6 -95 -9 -150 -3 -55
-7 -131 -10 -170 -12 -202 -21 -589 -25 -1032 l-1 -163 -1312 -2 c-1240 -3
-1314 -4 -1352 -21 -22 -10 -41 -18 -43 -17 -1 0 -24 -11 -51 -25 -111 -56
-218 -201 -245 -332 -9 -43 -12 -309 -10 -1063 1 -553 4 -1018 8 -1035 13 -58
75 -174 118 -221 57 -62 146 -119 227 -146 66 -21 70 -21 1361 -22 l1295 -1 1
-5025 c1 -2764 5 -5055 8 -5092 18 -206 170 -379 381 -433 53 -13 208 -15
1275 -13 1145 3 1217 4 1255 21 104 47 135 67 195 127 69 69 111 140 134 230
13 47 15 747 15 5114 1 2783 4 5062 7 5065 3 3 1113 6 2467 7 1354 0 2482 4
2507 8 24 5 51 12 60 16 123 57 154 77 207 134 54 58 113 164 129 232 4 16 8
481 8 1034 2 1050 2 1058 -40 1159 -40 97 -132 193 -236 245 -38 20 -81 39
-96 43 -15 4 -1149 9 -2521 10 l-2493 3 6 493 c4 270 8 526 10 567 2 41 7 138
11 215 3 77 8 147 10 155 2 8 7 56 10 105 3 50 8 110 10 135 3 25 7 78 10 119
4 41 8 77 10 80 1 3 6 35 10 71 5 36 9 72 10 80 1 8 5 42 9 75 4 33 15 98 23
145 8 47 17 96 19 110 2 14 9 45 14 70 5 25 12 56 14 70 28 169 126 481 203
650 151 329 452 721 693 900 18 14 45 35 59 46 113 93 426 262 596 320 218 76
366 121 451 138 10 2 48 11 84 19 107 25 332 58 485 72 232 20 665 21 870 1
33 -3 96 -8 140 -11 44 -3 96 -8 115 -11 41 -6 62 -8 195 -24 109 -13 491 -74
564 -91 25 -6 55 -12 66 -15 11 -2 31 -6 45 -9 14 -3 36 -7 50 -10 155 -29
558 -131 870 -221 61 -18 307 -94 415 -129 212 -68 352 -56 504 46 96 64 158
151 195 272 l22 72 -1 1155 -2 1155 -21 59 c-33 89 -69 145 -134 208 -58 57
-154 112 -213 122 -17 3 -41 8 -55 11 -32 8 -276 54 -315 60 -16 3 -50 10 -75
15 -25 5 -58 11 -75 14 -16 2 -46 6 -65 10 -33 5 -47 8 -132 21 -18 3 -60 10
-93 15 -96 16 -116 19 -164 25 -107 14 -239 33 -281 40 -14 2 -52 7 -85 10
-33 3 -73 8 -90 10 -16 2 -57 7 -90 10 -33 4 -71 8 -85 10 -14 2 -56 6 -95 10
-38 3 -86 8 -105 10 -19 3 -69 7 -110 10 -41 3 -86 8 -100 10 -14 2 -74 7
-135 10 -60 4 -126 8 -145 10 -32 3 -144 9 -382 21 -108 6 -1045 14 -1050 9z"/>
</g>
</svg>
